<svg width="91" height="86" viewBox="0 0 91 86" fill="none" xmlns="http://www.w3.org/2000/svg">
    <path d="M77.1765 42.4706C77.1765 50.2281 74.2887 57.3112 69.5294 62.7034C66.2761 66.3894 78.0588 70.1176 74.8235 71.8824C71.4425 73.1698 58.0588 74.5294 46.5882 73.0588C29.832 70.9106 16 59.364 16 42.4706C16 25.5772 29.6948 11.8824 46.5882 11.8824C63.4816 11.8824 77.1765 25.5772 77.1765 42.4706Z" fill="#FED666"/>
    <path d="M43.0613 48.1051V46.5124C43.0613 45.1349 43.3554 43.9368 43.9437 42.918C44.532 41.8993 45.6082 40.8159 47.1722 39.668C48.6788 38.5919 49.6689 37.7166 50.1424 37.0422C50.6303 36.3678 50.8742 35.6145 50.8742 34.7823C50.8742 33.8496 50.5298 33.1393 49.8411 32.6515C49.1523 32.1636 48.191 31.9197 46.957 31.9197C44.8046 31.9197 42.351 32.6228 39.596 34.029L37.25 29.3154C40.4498 27.5218 43.8433 26.625 47.4305 26.625C50.3863 26.625 52.7323 27.3353 54.4686 28.7558C56.2191 30.1763 57.0944 32.0704 57.0944 34.4379C57.0944 36.0163 56.7357 37.3794 56.0182 38.5273C55.3008 39.6752 53.9376 40.9666 51.9288 42.4015C50.5513 43.4203 49.6761 44.1951 49.303 44.726C48.9443 45.2569 48.7649 45.9528 48.7649 46.8137V48.1051H43.0613ZM42.3725 55.4661C42.3725 54.2608 42.6954 53.3496 43.3411 52.7326C43.9868 52.1156 44.9266 51.8071 46.1606 51.8071C47.3516 51.8071 48.2699 52.1228 48.9156 52.7541C49.5756 53.3855 49.9056 54.2895 49.9056 55.4661C49.9056 56.5996 49.5756 57.4964 48.9156 58.1565C48.2555 58.8022 47.3372 59.125 46.1606 59.125C44.9553 59.125 44.0226 58.8093 43.3626 58.178C42.7025 57.5323 42.3725 56.6283 42.3725 55.4661Z" fill="white"/>
    <ellipse cx="69.2354" cy="5.11765" rx="5" ry="5" fill="#FFEBB3"/>
    <circle cx="27.4706" cy="82.7647" r="3.23529" fill="#FFEBB3"/>
    <ellipse cx="7.76488" cy="66.5882" rx="7.05882" ry="7.05882" fill="#FFEBB3"/>
    <ellipse cx="87.1769" cy="13.6471" rx="3.52942" ry="3.52941" fill="#FFEBB3"/>
    <ellipse cx="80.412" cy="23.3529" rx="3.23529" ry="3.2353" fill="#FFEBB3"/>
</svg>